<?xml version="1.0" standalone="no"?>
<!DOCTYPE svg PUBLIC "-//W3C//DTD SVG 20010904//EN"
 "http://www.w3.org/TR/2001/REC-SVG-20010904/DTD/svg10.dtd">
<svg version="1.0" xmlns="http://www.w3.org/2000/svg"
 width="120.000000pt" height="120.000000pt" viewBox="0 0 120.000000 120.000000"
 preserveAspectRatio="xMidYMid meet">
<metadata>
Created by potrace 1.14, written by Peter Selinger 2001-2017
</metadata>
<g transform="translate(0.000000,120.000000) scale(0.100000,-0.100000)"
fill="#000000" stroke="none">
<path d="M540 1143 c-47 -39 -66 -94 -111 -317 -59 -292 -85 -358 -153 -382
-58 -19 -88 -44 -113 -94 -40 -78 -23 -168 40 -214 23 -17 45 -21 111 -23 75
-1 90 -5 156 -40 102 -53 158 -53 260 0 66 35 81 39 156 40 66 2 88 6 111 23
63 46 80 136 41 214 -26 50 -57 75 -114 94 -68 23 -101 110 -164 440 -29 151
-53 214 -95 254 -44 40 -82 42 -125 5z m121 -64 c34 -37 64 -126 85 -259 48
-297 81 -378 163 -400 104 -28 140 -130 81 -228 -11 -17 -23 -32 -27 -32 -5 0
-16 14 -25 30 -31 54 -103 33 -168 -49 -78 -97 -269 -95 -344 4 -59 77 -134
98 -164 45 -21 -37 -27 -37 -49 -4 -26 40 -34 122 -16 161 16 34 59 66 104 77
68 15 101 94 144 346 14 80 35 176 46 213 39 122 109 161 170 96z"/>
</g>
</svg>
